<mxfile host="app.diagrams.net" modified="2023-10-13T16:27:32.030Z" agent="Mozilla/5.0 (Windows NT 10.0; Win64; x64) AppleWebKit/537.36 (KHTML, like Gecko) Chrome/118.0.0.0 Safari/537.36" etag="Lm4JbrZNzQgFfojDWRRb" version="22.0.4" type="github">
  <diagram id="R2lEEEUBdFMjLlhIrx00" name="Page-1">
    <mxGraphModel dx="1290" dy="574" grid="1" gridSize="10" guides="1" tooltips="1" connect="1" arrows="1" fold="1" page="1" pageScale="1" pageWidth="850" pageHeight="1100" math="0" shadow="0" extFonts="Permanent Marker^https://fonts.googleapis.com/css?family=Permanent+Marker">
      <root>
        <mxCell id="0" />
        <mxCell id="1" parent="0" />
        <mxCell id="4j3YTI05tPYxbYp34O56-1" value="Usuario" style="swimlane;childLayout=stackLayout;horizontal=1;startSize=50;horizontalStack=0;rounded=1;fontSize=14;fontStyle=0;strokeWidth=2;resizeParent=0;resizeLast=1;shadow=0;dashed=0;align=center;arcSize=4;whiteSpace=wrap;html=1;" vertex="1" parent="1">
          <mxGeometry x="200" y="120" width="160" height="200" as="geometry" />
        </mxCell>
        <mxCell id="4j3YTI05tPYxbYp34O56-2" value="&lt;font style=&quot;font-size: 14px;&quot;&gt;&lt;b&gt;+id_usuario: int&lt;/b&gt;&lt;/font&gt;&lt;br style=&quot;border-color: var(--border-color);&quot;&gt;+nombre&lt;br style=&quot;border-color: var(--border-color);&quot;&gt;+apellidos&lt;br style=&quot;border-color: var(--border-color);&quot;&gt;+contrasena&lt;br style=&quot;border-color: var(--border-color);&quot;&gt;+direccion&lt;br style=&quot;border-color: var(--border-color);&quot;&gt;+telefono&lt;br style=&quot;border-color: var(--border-color);&quot;&gt;+email&lt;br style=&quot;border-color: var(--border-color);&quot;&gt;+foto&lt;br&gt;+celebridad (boolean)" style="align=left;strokeColor=none;fillColor=none;spacingLeft=4;fontSize=12;verticalAlign=top;resizable=0;rotatable=0;part=1;html=1;" vertex="1" parent="4j3YTI05tPYxbYp34O56-1">
          <mxGeometry y="50" width="160" height="150" as="geometry" />
        </mxCell>
        <mxCell id="4j3YTI05tPYxbYp34O56-5" value="telefono" style="shape=ext;margin=3;double=1;whiteSpace=wrap;html=1;align=center;" vertex="1" parent="1">
          <mxGeometry x="70" y="200" width="100" height="40" as="geometry" />
        </mxCell>
        <mxCell id="4j3YTI05tPYxbYp34O56-6" value="" style="shape=link;html=1;rounded=0;exitX=1;exitY=0.5;exitDx=0;exitDy=0;entryX=0;entryY=0.331;entryDx=0;entryDy=0;entryPerimeter=0;" edge="1" parent="1" source="4j3YTI05tPYxbYp34O56-5" target="4j3YTI05tPYxbYp34O56-2">
          <mxGeometry width="100" relative="1" as="geometry">
            <mxPoint x="200" y="222" as="sourcePoint" />
            <mxPoint x="300" y="222" as="targetPoint" />
          </mxGeometry>
        </mxCell>
        <mxCell id="4j3YTI05tPYxbYp34O56-10" value="Ser Contacto" style="shape=rhombus;perimeter=rhombusPerimeter;whiteSpace=wrap;html=1;align=center;" vertex="1" parent="1">
          <mxGeometry x="400" y="190" width="120" height="60" as="geometry" />
        </mxCell>
        <mxCell id="4j3YTI05tPYxbYp34O56-11" value="" style="edgeStyle=entityRelationEdgeStyle;fontSize=12;html=1;endArrow=ERoneToMany;rounded=0;exitX=0.995;exitY=0.069;exitDx=0;exitDy=0;entryX=0;entryY=0;entryDx=0;entryDy=0;exitPerimeter=0;" edge="1" parent="1" source="4j3YTI05tPYxbYp34O56-2" target="4j3YTI05tPYxbYp34O56-10">
          <mxGeometry width="100" height="100" relative="1" as="geometry">
            <mxPoint x="410" y="172" as="sourcePoint" />
            <mxPoint x="425" y="200" as="targetPoint" />
          </mxGeometry>
        </mxCell>
        <mxCell id="4j3YTI05tPYxbYp34O56-15" value="" style="edgeStyle=entityRelationEdgeStyle;fontSize=12;html=1;endArrow=ERoneToMany;rounded=0;entryX=1.003;entryY=0.693;entryDx=0;entryDy=0;entryPerimeter=0;exitX=0;exitY=1;exitDx=0;exitDy=0;" edge="1" parent="1" source="4j3YTI05tPYxbYp34O56-10" target="4j3YTI05tPYxbYp34O56-2">
          <mxGeometry width="100" height="100" relative="1" as="geometry">
            <mxPoint x="420" y="290" as="sourcePoint" />
            <mxPoint x="420" y="235" as="targetPoint" />
          </mxGeometry>
        </mxCell>
        <mxCell id="4j3YTI05tPYxbYp34O56-16" value="Grupo Contactos" style="shape=ext;margin=3;double=1;whiteSpace=wrap;html=1;align=center;" vertex="1" parent="1">
          <mxGeometry x="560" y="180" width="110" height="40" as="geometry" />
        </mxCell>
        <mxCell id="4j3YTI05tPYxbYp34O56-17" value="+nombre" style="ellipse;whiteSpace=wrap;html=1;align=center;" vertex="1" parent="1">
          <mxGeometry x="690" y="181" width="100" height="40" as="geometry" />
        </mxCell>
        <mxCell id="4j3YTI05tPYxbYp34O56-18" value="" style="endArrow=none;html=1;rounded=0;entryX=0;entryY=0.5;entryDx=0;entryDy=0;exitX=1;exitY=0.5;exitDx=0;exitDy=0;" edge="1" parent="1" source="4j3YTI05tPYxbYp34O56-16" target="4j3YTI05tPYxbYp34O56-17">
          <mxGeometry width="50" height="50" relative="1" as="geometry">
            <mxPoint x="510" y="132" as="sourcePoint" />
            <mxPoint x="560" y="82" as="targetPoint" />
          </mxGeometry>
        </mxCell>
        <mxCell id="4j3YTI05tPYxbYp34O56-22" value="" style="edgeStyle=entityRelationEdgeStyle;fontSize=12;html=1;endArrow=ERzeroToMany;endFill=1;startArrow=ERzeroToMany;rounded=0;exitX=0.995;exitY=0.098;exitDx=0;exitDy=0;exitPerimeter=0;entryX=0;entryY=0;entryDx=0;entryDy=0;" edge="1" parent="1" source="4j3YTI05tPYxbYp34O56-1" target="4j3YTI05tPYxbYp34O56-16">
          <mxGeometry width="100" height="100" relative="1" as="geometry">
            <mxPoint x="420" y="162" as="sourcePoint" />
            <mxPoint x="520" y="62" as="targetPoint" />
          </mxGeometry>
        </mxCell>
        <mxCell id="4j3YTI05tPYxbYp34O56-23" value="" style="edgeStyle=entityRelationEdgeStyle;fontSize=12;html=1;endArrow=ERmany;rounded=0;exitX=0;exitY=1;exitDx=0;exitDy=0;" edge="1" parent="1" source="4j3YTI05tPYxbYp34O56-16" target="4j3YTI05tPYxbYp34O56-10">
          <mxGeometry width="100" height="100" relative="1" as="geometry">
            <mxPoint x="460" y="442" as="sourcePoint" />
            <mxPoint x="560" y="342" as="targetPoint" />
          </mxGeometry>
        </mxCell>
        <mxCell id="4j3YTI05tPYxbYp34O56-24" value="Ser Bloqueado" style="shape=rhombus;perimeter=rhombusPerimeter;whiteSpace=wrap;html=1;align=center;" vertex="1" parent="1">
          <mxGeometry x="220" y="352" width="120" height="60" as="geometry" />
        </mxCell>
        <mxCell id="4j3YTI05tPYxbYp34O56-25" value="" style="fontSize=12;html=1;endArrow=ERmany;rounded=0;entryX=0;entryY=0;entryDx=0;entryDy=0;exitX=0.25;exitY=1;exitDx=0;exitDy=0;" edge="1" parent="1" source="4j3YTI05tPYxbYp34O56-2" target="4j3YTI05tPYxbYp34O56-24">
          <mxGeometry width="100" height="100" relative="1" as="geometry">
            <mxPoint x="250" y="320" as="sourcePoint" />
            <mxPoint x="180" y="375" as="targetPoint" />
          </mxGeometry>
        </mxCell>
        <mxCell id="4j3YTI05tPYxbYp34O56-28" value="" style="fontSize=12;html=1;endArrow=ERmany;rounded=0;entryX=0.75;entryY=1;entryDx=0;entryDy=0;exitX=1;exitY=0;exitDx=0;exitDy=0;" edge="1" parent="1" source="4j3YTI05tPYxbYp34O56-24" target="4j3YTI05tPYxbYp34O56-2">
          <mxGeometry width="100" height="100" relative="1" as="geometry">
            <mxPoint x="250" y="330" as="sourcePoint" />
            <mxPoint x="260" y="387" as="targetPoint" />
          </mxGeometry>
        </mxCell>
      </root>
    </mxGraphModel>
  </diagram>
</mxfile>
